<?xml version="1.0" encoding="utf-8"?>
<svg xmlns="http://www.w3.org/2000/svg" xml:space="preserve" viewBox="0 0 235 66">
  <path d="M218.6 37.4c0 8.9-4.1 13.9-11.4 13.9s-11.5-5.1-11.5-13.9v-8.7c0-8.9 4.1-13.9 11.4-13.9s11.5 5.1 11.5 14v8.6zM207.1.5c-17 0-27.3 9.9-27.3 26.4v12.3c0 16.5 10.4 26.4 27.4 26.4s27.3-9.9 27.3-26.4V26.9c0-16.6-10.4-26.4-27.4-26.4zM96.4 37.4c0 8.9-4.1 13.9-11.4 13.9s-11.5-5.1-11.5-13.9V1.6h-16v37.2c0 16.7 10.3 26.7 27.5 26.7s27.3-9.9 27.3-26.6V1.6H96.4v35.8zM146.2.6c-17.1 0-27.3 9.9-27.3 26.6v37.3h16V28.8c0-8.9 4.1-13.9 11.4-13.9s11.5 5.1 11.5 13.9v35.8h16V27.3c0-16.7-10.2-26.7-27.4-26.7h-.2zm-112 39.7c0 7.5-2.8 10.9-8.9 10.9-5.1 0-8.1-3-8.5-8.6H.5c.8 14.1 10.3 22.9 24.9 22.9 15.8 0 24.8-9.2 24.8-25.1V1.6h-16v38.7z"/>
</svg>