<?xml version="1.0" encoding="utf-8"?>
<!-- Generator: Adobe Illustrator 27.0.0, SVG Export Plug-In . SVG Version: 6.00 Build 0)  -->
<svg version="1.1" id="Layer_2_00000043443094250677293490000013189856905315643278_"
	 xmlns="http://www.w3.org/2000/svg" xmlns:xlink="http://www.w3.org/1999/xlink" fill="#FFD700"   x="0px" y="0px" viewBox="0 0 45.7 40.1"
	 style="enable-background:new 0 0 45.7 40.1;" xml:space="preserve">
<g id="Layer_2-2">
	<g id="Layer_1-2">
		<g>
			<path d="M21.9,30.4c0.1-0.7,0.1-1.4,0.2-2.1c0.2-2.2,0.5-4.5,0.7-6.8c0-0.4,0.1-0.7,0.1-1c0-0.6-0.2-0.9-0.9-0.9
				c-0.1,0-0.3,0-0.5,0c-2.8,0-5.5,0-8.2,0c-1.1,0-2.3-0.1-3.4-0.4c-0.6-0.1-1.1-0.3-1.6-0.6c-2-0.9-3.1-2.5-3.6-4.7
				c-0.3-1.7-0.2-3.3,0.1-5C4.9,8,5.2,6.9,5.6,5.9C6.8,3,8.9,1.2,12,0.4C13,0.1,14.1,0,15.3,0c-0.3,2.9-0.7,5.8-1,8.7
				c-0.7,0.2-0.9,0.7-0.9,1.4c0,0.4,0.2,0.7,0.6,0.8c0.2,0,0.4,0,0.6,0c2.9,0,5.9,0,8.8,0c1.4,0,2.7,0.2,4,0.7
				c2.4,0.9,3.7,2.6,4.2,5c0.3,1.6,0.2,3.2-0.1,4.8c-0.2,0.9-0.4,1.9-0.7,2.8c-1.2,3.3-3.5,5.2-6.8,6c-0.5,0.1-1.1,0.2-1.7,0.3
				C22.2,30.4,22.1,30.4,21.9,30.4L21.9,30.4z"/>
			<path d="M28.5,11c0,0,0.1,0,0.1,0c1.1,0,2.3,0,3.4,0c1.1,0,2.1,0,3.2,0c0.2,0,0.4,0,0.7-0.1c0.7-0.1,1.2-1,0.8-1.7
				c-0.1-0.2-0.3-0.3-0.4-0.4c-0.2-0.1-0.5-0.1-0.7-0.1c-3.8,0-7.5,0-11.3,0c-0.1,0-0.3,0-0.4,0c-0.1,0.4-0.1,0.8-0.2,1.2H15
				c0.4-3.3,0.8-6.6,1.2-10c0.2,0,0.4,0,0.6,0c4.2,0,8.4,0,12.5,0c2.7,0,5.3,0,8,0c1.3,0,2.5,0.2,3.8,0.6c2.4,0.8,3.9,2.5,4.3,5
				c0.5,3,0.1,5.9-1.2,8.7c-1.3,2.8-3.5,4.4-6.5,5c-1.7,0.4-3.3,0.3-5.1,0.3c0-0.2,0-0.5,0-0.7c0-1.6-0.3-3.2-1-4.7
				c-0.4-0.9-1.1-1.7-1.9-2.3c-0.4-0.3-0.8-0.5-1.2-0.8C28.5,11.1,28.5,11,28.5,11z"/>
			<path d="M13.5,20.5c2.8,0,5.6,0,8.4,0c0.1,0,0.2,0.1,0.4,0.1c-0.8,6.5-1.6,13-2.4,19.5c-0.1-0.1-0.2-0.2-0.3-0.3
				c-2.4-2.7-4.7-5.3-7.1-8c-0.2-0.3-0.3-0.5-0.2-0.9c0.2-1.8,0.4-3.5,0.7-5.3C13.1,23.9,13.3,22.2,13.5,20.5L13.5,20.5z"/>
			<path d="M12.6,21.8c-0.4,2.9-0.7,5.8-1.1,8.7H1.1c-0.4-2.9-0.7-5.8-1.1-8.7H12.6z"/>
		</g>
	</g>
</g>
</svg>
