<?xml version="1.0" encoding="UTF-8"?><svg id="Layer_2" xmlns="http://www.w3.org/2000/svg" viewBox="0 0 802.46 125.7"><g id="Layer_2-2"><g id="Layer_1-2"><path d="M760.51,54.52c18.99,21.65,3.81,56.55-24.75,56.61-8.19,.01-16.37,.06-24.54,.15-.31,0-.47,.17-.47,.48v13.48c0,.52-.19,.6-.56,.24-4.43-4.27-8.77-8.61-13.03-13.01-.17-.17-2.64-2.56-3.34-3.26-9.27-9.39-18.6-18.71-27.99-27.97-.39-.38-.58-.3-.58,.25v29.24c0,.28-.22,.5-.5,.5h-78c-.28,0-.5,.22-.5,.5v13c0,.36-.22,.45-.49,.2-6.46-6.05-10.43-9.97-11.93-11.77-.85-1.01-18.59-18.64-26-25.91-.39-.38-.58-.3-.58,.24v23.22c0,.33-.17,.5-.5,.5-15.85,.04-31.67,.05-47.46,.02-7.35,0-12.82-.5-16.42-1.47-7.21-1.93-13.65-5.53-19.3-10.8-.39-.37-.58-.28-.58,.25l.02,11.52c0,.28-.22,.5-.5,.5h-40.26c-.28,0-.5-.22-.5-.5v-9c0-.28-.22-.5-.5-.5h-23.87c-.33,0-.61,.12-.84,.35l-23.33,23.65c-.47,.48-.71,.38-.71-.29v-35.23c0-.43-.43-.71-.82-.55-7.65,2.94-15.66,2.34-23.91,2.32-.35,0-.52,.17-.52,.51,0,0,0,12.92,.05,19.21,0,.16-.13,.28-.29,.28h-47.43c-.34,0-.62-.13-.84-.39l-17.48-21.07c-.28-.34-.51-.26-.51,.18v20.76c0,.33-.17,.5-.5,.5-15.37,.05-30.71,.05-46.03,.01-8.43-.03-14.53-.55-18.28-1.58-7.04-1.91-13.33-5.47-18.86-10.66-.38-.36-.57-.28-.58,.25v11.5c0,.28-.22,.5-.5,.5h-40.5c-.28,0-.5-.22-.5-.5v-9c0-.28-.22-.5-.5-.5h-23.74c-.25,0-.49,.1-.67,.28l-23.43,23.45c-.45,.44-.67,.35-.67-.28v-12.96c0-.27-.22-.49-.49-.49h-25.5c-.28,0-.5-.22-.5-.5V54.73c0-.28-.22-.5-.5-.5h-12.72c-.49,0-.58,.18-.27,.55,5.82,7,8.55,14.8,8.2,23.41-.61,14.62-10.39,28.11-24.72,32.13-2.6,.73-6.67,1.11-12.22,1.14-12.25,.06-24.51,.06-36.78,0-.33,0-.49-.16-.49-.49v-38.77c0-.37,.18-.55,.55-.54l9.43,.29c.36,.01,.42-.12,.19-.39C-6.34,52.18,.23,22.52,25.71,15.47c3.64-1.01,9.71-1.51,18.22-1.5,39.11,.02,78.23,.02,117.36,0,.3,0,.45,.36,.24,.57,0,0-37.65,35.32-41.8,39.14-.34,.31-.56,.55-.6,.93-.17,1.58-.13,2.77-.11,3.43,.02,.37,.35,.08,.48-.04L163.59,14.26c.18-.18,.42-.28,.68-.28h31.73c.28,0,.5,.22,.5,.5v13.74c0,.55,.21,.63,.6,.26,10.25-9.61,22.46-14.43,36.64-14.46,10.7-.02,21.38-.04,32.07-.05,.37,0,.73-.15,.99-.41L280.16,.19c.22-.22,.59-.06,.59,.24V29.52c0,.45,.26,.56,.58,.24l15.37-15.36c.25-.25,.55-.37,.9-.37,17.6-.07,35.18-.16,52.73-.25,8.6-.05,14.66,.35,18.17,1.21,15.76,3.84,25.31,15.84,27.85,32.04,.09,.57,.33,.65,.74,.24l33.16-33.16c.24-.24,.57-.38,.92-.38h31.33c.28,0,.5,.22,.5,.5v14c0,.54,.2,.62,.59,.25,10.44-9.83,22.91-14.75,37.4-14.75h31.71c.28,0,.55-.11,.75-.31L546.67,.19c.33-.33,.59-.22,.59,.25V29.52c-.01,.55,.19,.63,.58,.24l15.62-15.61c.26-.26,.57-.39,.94-.39,37.37-.05,74.74-.07,112.09-.04,10.81,0,19.93,3.78,27.36,11.33,.25,.25,.49,.25,.74,0,7.12-7.49,15.61-11.24,25.46-11.27,24.07-.05,48.12-.06,72.15-.02,.23,0,.35,.28,.19,.44-13.01,13.13-26.13,26.15-39.36,39.08-.82,.8-1.07,.83-2.21,.68-.61-.07-.71,.12-.31,.57h0Zm-98.17,17.9l44.32,44.32c.4,.4,.6,.32,.6-.24l-.02-8.28c0-.34,.17-.51,.52-.51h23.37c5.6-.01,9.64-.37,12.12-1.09,13.33-3.87,22.25-16.85,22.05-30.25-.16-10.78-5.37-19.3-14.3-25.12-.36-.23-.19-.79,.24-.79l9.07,.02c.35,0,.65-.12,.9-.37l32.12-32.07c.35-.35,.28-.53-.22-.53-19.69-.07-39.38-.08-59.07-.02-5.83,0-10.24,.49-13.21,1.44-6.62,2.1-12.11,6.09-16.48,11.98-.23,.31-.45,.31-.68,0-4.24-5.88-9.58-9.83-16.01-11.86-3.3-1.04-9.47-1.56-18.5-1.57-34.47-.03-68.96-.03-103.47,0-.37,0-.72,.15-.98,.41l-20.37,20.37c-.4,.39-.6,.31-.6-.25V9.19c.01-.56-.19-.64-.58-.25l-8.21,8.22c-.21,.21-.46,.31-.75,.31-9.88,.02-19.76,.02-29.65,0-7,0-12.33,.43-16,1.32-11.47,2.8-20.88,9.13-28.21,18.98-.27,.36-.84,.17-.84-.28V17.98c0-.33-.17-.5-.5-.5h-26.64c-.33,0-.61,.12-.84,.35l-38.03,38.37c-.18,.18-.48,.05-.48-.2,.27-17.38-6.59-31.94-24.06-37.01-3.28-.95-8.15-1.44-14.62-1.47-18.38-.07-36.78-.08-55.19-.01-.37,0-.68,.13-.94,.39l-20.51,20.51c-.26,.26-.7,.07-.7-.3V9.44c.02-.55-.18-.63-.58-.24l-8.2,8.19c-.23,.23-.51,.35-.84,.35-10.37-.03-20.74-.02-31.11,.01-6.71,.02-11.83,.5-15.37,1.45-8.19,2.19-15.38,6.38-21.59,12.58-2.06,2.06-4.1,4.18-6.13,6.36-.29,.31-.43,.26-.43-.17V18.23c0-.33-.16-.5-.49-.5h-26.71c-.22,0-.43,.09-.58,.24l-49.08,47.32c-.42,.42-.63,.33-.63-.26v-13.8c0-.33,.17-.5,.5-.5h2.97c.27,0,.51-.1,.7-.29l33.5-32.51c.31-.31,.25-.47-.2-.47-38.05,.02-76.08,.12-114.11,.31-5.42,.03-9.61,.5-12.56,1.41C2.11,26.57-2.63,56.57,16.31,72.08c1.14,.94,2.28,1.89,3.41,2.86,.41,.36,.35,.54-.2,.54H4c-.33,0-.5,.17-.5,.5v31.47c0,.32,.16,.48,.48,.48,12.01,.09,24.02,.12,36.02,.11,17.48-.02,31.08-14.93,30.53-32.2-.31-10.03-4.99-18.1-14.02-24.23-.87-.59-.78-.88,.27-.88h25.72c.33,0,.5,.17,.5,.5v56.25c0,.33,.17,.5,.5,.5h25.49c.33,0,.5,.17,.5,.5l.02,7.72c0,.6,.21,.69,.64,.26l18.09-18.1c.25-.25,.56-.38,.92-.38h29.09c.33,0,.5,.17,.5,.5v9c0,.33,.17,.5,.5,.5h33c.33,0,.5-.17,.5-.5v-17.01c0-1.37,.4-1.5,1.2-.39,6.28,8.69,14.33,14.22,24.14,16.59,3.61,.87,10.25,1.3,19.91,1.31h38.45c.35,0,.52-.17,.52-.52,.06-6.71,.06-13.44,.01-20.18-.02-2.14,1.07-3.08,2.76-4.02,.32-.17,.59-.12,.82,.16l20.05,24.17c.22,.25,.53,.4,.86,.4h41.78c.34,0,.51-.17,.51-.51l-.02-18.97c0-.34,.17-.51,.51-.51,11.17-.04,20.42,1.24,31.29-4.7,.32-.17,.71,.06,.71,.43v32.31c0,.55,.19,.63,.58,.24l18.25-18.25c.19-.19,.43-.29,.7-.29h28.97c.34,0,.51,.17,.51,.5v9c-.01,.33,.16,.5,.49,.5h33.25c.33,0,.5-.17,.5-.5v-17.72c.01-.35,.45-.49,.65-.21,6.07,8.69,13.99,14.35,23.76,16.96,3.63,.97,9.23,1.46,16.81,1.47h42.52c.34,0,.51-.17,.51-.51v-21.24c0-.42,.15-.78,.44-1.07l2.7-2.68c.33-.33,.67-.33,1.01,0l34.12,33.83c.18,.17,.47,.05,.47-.2v-7.62c.01-.33,.18-.5,.51-.5h78.25c.33,0,.5-.17,.5-.5v-34.54c0-.56,.2-.64,.59-.25v-.02h0Z" fill="#f8f8f0" stroke="black" stroke-width="0.5"/><path d="M270.84,53.76l29.44-29.43c.22-.22,.53-.35,.84-.35h26.16c.5,0,.57,.18,.22,.54l-33.43,33.76c-.3,.31-.31,.62-.03,.95l21.01,24.65c.15,.18,.45,.08,.45-.16V45.39c0-.35,.13-.66,.38-.91l20.3-20.3c.24-.24,.53-.36,.86-.37,11.94-.2,19.57-.2,22.9,0,13.55,.85,22.1,7.96,25.63,21.35,.78,2.95,.95,6.53,.5,10.74-1.22,11.46-8.59,20.54-19.46,24.21-6.86,2.32-16.48,1.39-24.11,1.35-.33,0-.5-.17-.5-.51v-17.97c0-.34,.17-.51,.51-.51,4.53,.03,11.15,.52,14.73-1.54,5.45-3.16,5.32-12.91-.44-15.94-1.29-.69-3.54-1.03-6.74-1.04-4.28,0-8.55,0-12.82,.03-.33,0-.49,.17-.49,.5v56.32c0,.39-.19,.58-.58,.58l-32.33,.19c-.25,0-.49-.11-.65-.3l-22.89-27.6c-.15-.19-.43-.2-.59-.03l-9.02,9.02c-.28,.27-.44,.66-.44,1.06v17.25c0,.33-.17,.5-.5,.5h-20.25c-.33,0-.5-.17-.5-.5V45.73c0-.41,.15-.77,.44-1.06l20.37-20.38c.29-.3,.44-.24,.44,.19v29.04c0,.55,.2,.63,.59,.24h0Z" fill="#FAFA33"/><path d="M430.74,52.86l-47.98,47.99c-.19,.19-.51,.05-.51-.21v-24.64c0-.08,.03-.15,.09-.21l51.61-51.97c.06-.06,.13-.09,.21-.09h18.29c.17,0,.3,.13,.3,.3V100.93c0,.17-.13,.3-.3,.3h-20.9c-.17,0-.3-.13-.3-.3v-9.4c0-.17-.13-.3-.3-.3h-32.54c-.27,0-.4-.33-.21-.51l18.66-18.4c.06-.06,.13-.09,.21-.09h13.88c.17,0,.3-.13,.3-.3v-18.86c0-.26-.32-.4-.51-.21h0Z" fill="#FAFA33"/><path d="M466.81,39.27c5.49-6.85,12.53-11.48,21.13-13.87,4.01-1.11,10.05-1.68,18.12-1.7,7.53-.03,15.08,0,22.64,.07,.59,0,.67,.22,.25,.63l-19.26,19.26c-.22,.22-.53,.35-.85,.35-5.72-.09-12.2-.64-17.27,1.25-10.86,4.04-16.23,16.19-10.55,26.91,6.35,11.98,18.29,9.58,29.72,9.56,.34,0,.51,.17,.51,.51v18.47c0,.34-.17,.51-.5,.51-8.39,.04-18.57,.77-25.87-1.15-18.44-4.85-29.58-24.81-26.28-42.83,1.23-6.69,3.96-12.68,8.21-17.97h0Z" fill="#FAFA33"/><path d="M537.5,53.59l29.78-29.77c.06-.06,.13-.09,.21-.09h26.59c.27,0,.4,.32,.21,.51l-33.87,34.12c-.12,.12-.12,.3,0,.42l15.24,15.24c.06,.06,.09,.13,.09,.21v26.33c0,.27-.32,.4-.51,.21l-27.99-27.74c-.12-.12-.3-.12-.42,0l-9.74,9.73c-.06,.06-.09,.13-.09,.21v17.96c0,.17-.13,.3-.3,.3h-20.9c-.17,0-.3-.13-.3-.3V45.25c0-.08,.03-.15,.09-.21l20.91-20.99c.19-.18,.51-.05,.51,.22l-.02,29.11c0,.26,.32,.4,.51,.21h0Z" fill="#FAFA33"/><path d="M601.81,81.73h27.13c.17,0,.31,.14,.31,.31v18.88c0,.17-.14,.31-.31,.31h-48.63c-.17,0-.31-.14-.31-.31V45.23c0-.08,.03-.16,.09-.22l21.19-21.19c.06-.06,.14-.09,.22-.09h46.88c.28,0,.42,.33,.22,.53l-19.64,19.63c-.06,.06-.14,.09-.22,.09h-26.93c-.17,0-.31,.14-.31,.31v8.63c0,.17,.14,.31,.31,.31h27.13c.17,0,.31,.14,.31,.31v18.38c0,.17-.14,.31-.31,.31h-27.13c-.17,0-.31,.14-.31,.31v8.88c0,.17,.14,.31,.31,.31Z" fill="#FAFA33"/><path d="M654.75,44.51v56.22c0,.33-.17,.5-.5,.5h-20.25c-.33,0-.5-.17-.5-.5V45.26c0-.27,.1-.5,.29-.69l20.42-20.42c.25-.26,.56-.39,.92-.39,19.74-.23,45.06-3.77,45.9,23.7,.25,8.05-2.76,14.65-9.01,19.78-.32,.26-.34,.54-.05,.84l8,8.32c.19,.19,.28,.42,.28,.69v23.84c0,.62-.22,.71-.65,.27l-40.05-40.05c-.4-.4-.32-.61,.24-.63,7.91-.27,20.23,2.1,19.22-10.04-.45-5.35-4.74-6.4-9.61-6.48-4.72-.07-9.44-.07-14.17,.02-.32,0-.48,.17-.48,.49Z" fill="#FAFA33"/><path d="M735.08,73.37c-.7-.46-1.53-.69-2.36-.66-29.81,1.31-38.75-40.29-9.34-48.1,2.18-.58,5.95-.87,11.32-.87h42.99c.19,0,.28,.22,.15,.35l-19.61,19.5c-.26,.25-.57,.38-.93,.38-9.45,0-18.88,.02-28.29,.03-6.51,0-4.38,8.8,1.95,9.09,4.92,.23,9.16,.46,13.51,2.27,19.48,8.13,18.44,36.79-1.31,44.39-2.54,.98-6.54,1.47-12.01,1.48h-26.39c-.34,0-.51-.17-.51-.51v-18.46c0-.33,.17-.5,.5-.51,8.26-.03,16.5-.03,24.73-.02,2.53,.01,5.48,.68,6.91-2.04,1.41-2.69,.98-4.79-1.31-6.31h0Z" fill="#FAFA33"/><path d="M33.3,52.4c3.04,1.41,6.87,.98,9.51,1.29,26.15,3.07,28.13,38.46,4.34,46.59-2.47,.84-5.78,1.25-9.91,1.24-9.08-.03-18.15-.04-27.21-.03-.35,0-.53-.18-.53-.53v-18.72c0-.36,.18-.53,.53-.52,12.12,.31,21.53,.4,28.22,.25,3.81-.08,5.59-5.89,2.64-8.02-.83-.6-2.31-.94-4.44-1.01-14.13-.48-24.2-9.28-25.6-22.82-1.21-11.81,5.57-21.7,16.87-25.09,2.23-.67,5.79-1.01,10.67-1.03,14.73-.07,29.46-.06,44.2,.02,.49,0,.57,.18,.22,.53l-19.26,19.25c-.26,.26-.61,.41-.98,.41-9.47,.04-18.93,.05-28.4,.03-5.18-.02-4.78,6.35-.87,8.16Z" fill="#FAFA33"/><path d="M110.5,44.55v56.6c0,.18-.15,.33-.33,.33h-20.84c-.18,0-.33-.15-.33-.33V44.56c0-.18-.15-.33-.33-.33h-18.25c-.3,0-.44-.36-.24-.56l19.59-19.59c.07-.07,.15-.1,.24-.1h46.71c.29,0,.44,.35,.23,.56l-19.43,19.6c-.06,.06-.15,.1-.24,.1l-6.45-.02c-.18,0-.33,.15-.33,.33Z" fill="#FAFA33"/><path d="M164.15,91.48h-32.27c-.31,0-.47-.38-.25-.6l18.44-18.3c.06-.06,.15-.1,.24-.1h13.84c.19,.01,.35-.15,.35-.34v-18.69c0-.32-.38-.47-.6-.25l-47.8,47.81c-.22,.22-.6,.07-.6-.25v-24.46c0-.09,.04-.18,.1-.24l51.61-51.98c.06-.06,.15-.1,.25-.1h18.19c.19,0,.35,.16,.35,.35V101.13c0,.19-.16,.35-.35,.35h-20.8c-.19,0-.35-.16-.35-.35v-9.3c0-.19-.16-.35-.35-.35h0Z" fill="#FAFA33"/><path d="M228.23,44.51c-13.15,2.81-20.62,16.51-13.44,28.69,6.51,11.04,17.87,8.49,28.46,8.54,.33,0,.5,.17,.5,.5v18.74c0,.35-.18,.52-.53,.52-7.57-.08-16.56,.69-23.26-.92-16.03-3.83-26.39-16.54-28.31-32.69-2.28-19.18,10.74-37.19,29.55-42.39,3.58-.99,9.32-1.49,17.23-1.51,7.87-.02,15.69-.02,23.48,0,.36,0,.53,.43,.28,.68l-18.99,19c-.2,.2-.49,.32-.78,.32-4.65,0-10.16-.33-14.19,.53h0Z" fill="#FAFA33"/></g></g></svg>